<?xml version="1.0" encoding="UTF-8"?>
<svg id="Layer_1" data-name="Layer 1" xmlns="http://www.w3.org/2000/svg" xmlns:xlink="http://www.w3.org/1999/xlink" viewBox="0 0 846.85 805.4">
  <defs>
    <style>
      .cls-1 {
        fill: url(#linear-gradient);
        stroke-width: 0px;
      }
    </style>
    <linearGradient id="linear-gradient" x1="5.18" y1="521.17" x2="744.03" y2="149.53" gradientUnits="userSpaceOnUse">
      <stop offset="0" stop-color="#d98f40"/>
      <stop offset="1" stop-color="#c87b28"/>
    </linearGradient>
  </defs>
  <path class="cls-1" d="m821.12,324.19h0c-1.48-2.32-3.17-4.33-5.04-6.02l.09-.88c1.5-15.59,1.41-31.63-.26-47.68l-.09-.83c-1.57-14.95-3.19-30.41-7.65-44.85-2.77-8.97-6.53-17.64-9.84-25.06-6.63-14.81-14.92-28.29-24.63-40.07-13.95-16.93-31.3-30.97-51.55-41.74-27.33-14.48-49.79-20.72-72.71-20.86-.94-.02-1.92,0-2.38-.24-.44-.23-1.04-.93-1.36-1.33-26.32-30.17-61.66-55.5-102.21-73.26C511.04,7.19,478.71,0,447.36,0c-36.85,0-74.9,10.41-107.14,29.32-1.03.61-2.09,1.23-2.98,1.41-1.05.21-2.38-.05-3.81-.33-19.07-3.56-38.33-4.47-56.31-2.79-50.92,4.55-88.21,27.63-110.81,68.63-2.58,4.7-4.18,9.6-4.77,14.6-21.31,5.18-41.05,15.42-57.19,29.69l-1.03.88c-2.05,1.85-4.06,3.77-5.95,5.72-5.85,5.95-10.94,12.34-15.13,19-12.34,19.36-17.38,40.25-14.57,60.43l.4,2.74c-2.16,1.91-4.12,4.23-5.96,7.07-7.62,11.82-13.63,24.19-19.12,35.5-3.12,6.37-6.07,12.39-9.24,18.24C6.36,340.87.28,402.5,0,445.27c-.2,27.93,3.38,55.09,10.64,80.71,3.67,12.94,8.32,25.67,13.81,37.84l.22.47c.12.25.24.51.37.75,13.59,36.9,31.53,75.27,56.44,120.7,18.66,34.02,40.96,73.11,69.51,106.4,1.16,1.36,2.35,2.69,3.55,4.01l2.86,3.14c.18.21.37.42.57.63l.56.62.04-.03c.28.26.6.53.98.82,3.39,2.71,7.48,4.05,11.55,4.05,4.58,0,9.13-1.7,12.61-5.05,6.11-5.93,5.78-13.23,5.48-19.66l-.1-2.35c-.17-6.24-.01-12.04.48-17.72,1.61-18.32,7.72-34.89,18.15-49.26h1.73v-.45h.33v-2.2l.04-.05c.54-.65,1.06-1.3,1.66-1.96,1.46-1.68,2.97-3.29,4.53-4.87,2.84-2.9,5.95-5.72,9.66-8.72l1.04-.81c.81-.63,1.62-1.21,2.51-1.84,1.89-1.39,3.84-2.71,5.91-4,3.41-2.21,7.2-4.4,11.26-6.52,1.86-.96,3.78-1.92,5.63-2.8l5.17-2.34,2.74-.02v-1.11l.27-.11c.98-.41,1.96-.79,2.93-1.16,2.13-.81,4.29-1.58,6.46-2.35,8.17-2.81,16.64-5.22,25.93-7.37l7.12-1.63c9.84-2.23,20.02-4.54,29.87-7.86,15.14-5.07,28.67-11.33,40.2-18.59,17.12-10.83,30.09-27.06,35.53-44.19,4.17,3.08,8.27,5.68,12.46,7.87,29.69,15.65,61.68,14.72,83.28,11.19,49.22-8.02,73.17-43.3,86.89-69.12,3.04-5.65,5.18-12.01,6.41-18.97,12.19,5.35,24.82,8.06,37.62,8.06,4.92,0,9.84-.41,15.07-1.25,4.87-.78,9.95-2.02,15.1-3.68,12.97-4.21,25.16-11.66,37.2-22.77,11.96,4.27,24.43,6.43,37.11,6.43,51.7,0,96.1-36.52,105.58-86.83,7.74-41.22-9.9-75.16-23.84-97.11Zm-44.43,149.08c-23.3,11.84-49.81,12.36-72.76,1.43-1.89-.91-4.75-2.29-7.92-1.37-2.09.62-3.54,2.07-4.49,3.02-11.15,11.15-21.27,19.47-34.37,23.83-19.22,6.28-38.07,4.49-55.97-5.34-.45-.25-.64-.36-.64-1.72.05-13.23.07-26.46.1-39.7.02-12.98.05-25.97.09-38.97h96.89v-76.84h46.04c-.01.21-.04.41-.05.59-.06.63-.11,1.26-.11,1.89.09,14.28.09,28.66.03,42.98v1.65c.04,6.72.06,12.52-4.62,17.98-3.09,3.61-4.48,8.38-3.92,13.42.67,6.09,4.08,11.98,9.1,15.74,8.96,6.72,21.6,5.88,29.41-1.96,8.23-8.31,8.91-21.24,1.56-29.41-2.89-3.26-3.44-6.36-3.41-10.6.15-13.74.13-27.49.11-41.66v-11.06s6.94,0,6.94,0c6.83,0,13.6-.01,20.29-.03,0,0,.18.13.55.73,18.74,29.5,25.02,53.76,20.34,78.67h0c-4.58,24.43-20.32,45.1-43.2,56.74Zm-204.02-76.92c.04.49.08.97.08,1.43l-.07,23.09c-.09,27.48-.19,55.9.3,83.83.14,9.82-1.37,17.55-4.62,23.62-18.05,33.89-39.16,51.13-68.46,55.91-10.8,1.77-22.56,1.85-37.01.24-11.17-1.25-22.75-3.33-31.76-9.96-7.66-5.65-14.41-12.89-20.94-19.89l-3.52-3.77c-1.92-2.05-3.87-4.1-5.86-6.09l-1.85-1.86c-11.88-11.91-23.79-23.79-35.7-35.66l-.34-.35c-.31-.32-.63-.65-.87-.87l-15.12-15.11c-.71-4.84-2.98-9.35-6.45-12.79-.44-.44-.89-.85-1.24-1.14-4.76-4.17-11.11-6.14-17.35-5.44-5.24.52-10.16,2.86-13.84,6.57-3.78,3.77-6.07,8.57-6.64,13.94-.11,1.21-.13,2.33-.07,3.4l-167.32,167.97-19.64,19.23c-2.58-4.24-5.24-8.39-7.9-12.55-4.14-6.47-8.43-13.17-12.29-20.05-2.82-4.96-5.75-9.51-8.82-14.21-17.01-33.73-36.12-72.99-47.71-112-8.65-29.41-12.45-60.89-11.32-93.57,1.24-34.57,7.85-69.18,19.65-102.89,6.78-19.41,14.27-36.43,22.9-52.03,5.03-9.07,9.37-16.24,13.68-22.59.97-1.44,2.33-2.99,3.78-4.64,3.83-4.37,8.18-9.32,8.26-15.56,0-2.26-.58-4.35-1.1-6.2l-.26-.92c-2.46-9.2-1.34-19.57,3.4-31.63h69.79v115.58h-14.55c-17.81-.03-35.36-.05-52.88.1-1.36,0-2.03-.56-3.55-1.92l-.83-.73c-9.93-8.31-23.29-7.64-31.75,1.57-7.97,8.58-7.65,22.09.75,30.75,8.38,8.57,21.83,8.82,31.29.57.52-.45.99-.96,1.45-1.48.96-1.07,1.13-1.16,1.4-1.16,9.16.02,18.32.02,27.58,0h10.66s.01,48.42.01,48.42c.01,36.78.02,73.56-.04,110.33-.04,10.67,3.95,17.63,12.21,21.27,8.38,3.68,16.41,1.79,23.89-5.65,28.39-28.52,58.79-58.99,88.75-88.65,3.58-3.58,5.05-7.36,4.92-12.61-.09-5.2-.1-32.23-.11-60.86l-.02-38.55,37.66,37.66c.2,5.77,2.54,11.15,6.68,15.29,8.92,8.93,23.47,8.93,32.44,0,4.41-4.41,6.8-10.36,6.69-16.55l37.64-37.63-.09,46.73c0,.65.06,24.18.06,24.18l.02,8.56c.03,7.06.05,14.11-.09,21.14-.13,5.28,1.35,9.06,4.94,12.64,30.1,29.81,60.44,60.22,88.75,88.65,7.46,7.42,15.5,9.32,23.88,5.63,8.25-3.64,12.24-10.6,12.2-21.26-.07-36.78-.06-73.56-.04-110.34v-48.42c3.55,0,4.37,0,4.92.01.82,0,1.03,0,8.45-.01.28,0,.44.09,1.4,1.16.47.52.94,1.03,1.46,1.49,9.46,8.24,22.9,7.99,31.29-.59,8.38-8.65,8.71-22.16.75-30.73-8.47-9.23-21.83-9.9-31.81-1.55l-.78.69c-1.52,1.37-2.2,1.92-3.52,1.92-16.48-.14-20.68-.13-30.05-.11h-12.55s0-115.57,0-115.57h84.71v-72.11c.54-.14,1.13-.1,1.99-.04.5.04,1,.07,1.49.07l13.78-.02c19.02-.04,38.05-.06,57.08-.01l8.34.02-.03-.03c62.87,4.62,117.03,53.83,133.04,121.5h-67.06v-71.27h-39.79l-2.37.03c-19.58.11-37.03-1.73-39.68-4.17-3.49-3.24-8.26-4.86-13.41-4.56-6.08.35-12.07,3.3-16.01,7.9-7.38,8.56-7.42,20.92-.09,29.41,7.96,9.13,21.4,10.55,29.95,3.16,2.99-2.39,24.73-3.88,37.91-3.78l9.27.09c.28,0,1.04-.02,5.98-.02v71.1h99.6c1.42,13.28,1.63,25.47.64,37.89h-137.44v-71.27h-32.74c-2.67,0-4.27,0-5.09.03h-.96c-.97-.03-2.5-.03-4.91-.03h-1.79c-40.42.2-47.14-3.33-48.25-4.41-3.34-3.26-7.97-4.93-13.06-4.68-6.21.29-12.32,3.3-16.34,8.05-7.57,8.94-7.33,21.56.57,29.99,8.1,8.67,21.89,9.52,30.09,1.89,3.05-2.79,5.94-3.29,10.58-3.25,11.21.08,22.15.09,33.14.09,6.86,0,13.73,0,20.71.03v71.6h43.86v49.14h-94.01l-1.03,1.45c-2.34,3.3-2.1,6.41-1.92,8.69Zm-418.51,287.3l155.85-156.4,10.27-10.31c2.85.5,5.82.46,8.72-.14.91-.18,1.81-.43,2.7-.74l49.23,49.24c1.14,1.14,2.26,2.26,3.37,3.39.09,1.26.11,2.64.06,4.27-.15,4.13-1.19,8.58-3.07,13.2-3.3,8.01-10.03,16.63-17.13,21.96-20.18,15.23-45.83,22.25-70.54,27.57-42.7,9.19-74.28,24.63-96.55,47.22-13.76,13.99-23.92,31.37-29.4,50.27-2.75,9.52-4.46,19.91-5.09,30.9l-.33-.33-.93-1.34h-.09c-.3-.4-.56-.73-.59-.74-5.34-7.12-10.75-14.78-16.07-22.78-5.66-8.48-11.53-17.76-17.92-28.28l27.52-26.96ZM321.33,137.07c2.98,2.18,5.81,2.02,7.68,1.88.39-.02.75-.06,1.2-.04h2.98c43.71.04,87.43.06,131.17,0,3.14-.02,5.1.63,7.18,2.52,9.19,8.4,22.6,7.91,31.19-1.16,8.05-8.51,8.03-22.32-.05-30.79-8.44-8.78-21.85-9.27-31.21-1.12-1.97,1.72-3.19,2.48-5.17,2.48-25.32-.11-50.62-.12-75.92-.13-14.23,0-28.45-.01-42.7-.04v-34.33c.06-6.71.04-10.35-.17-11.58-.14-.98-.14-5.01,0-5.91.77-3.83,3.48-6.69,9.34-9.85,56.54-30.04,114.23-31.44,176.38-4.26,26.55,11.6,51.77,27.67,76.99,49.07h-66.98v71.5c-.32.04-.71.01-1.28-.02-.48-.03-.97-.04-1.35-.05l-56.16.02c-30.43,0-62.83,0-84.29.05-3.18,0-5.17-.71-7.31-2.59-9.13-8.08-23.14-7.43-31.28,1.49-7.51,8.39-7.5,21.94.02,30.19,8.45,9.26,21.52,10.01,31.1,1.78,2.52-2.18,4.66-2.93,7.87-2.85,7.19.2,32.31.14,48.95.09l7.75-.02v143.37h30.74v142.93c-7.96-7.96-15.92-15.92-23.87-23.88-15.54-15.56-31.07-31.12-46.69-46.62-2.02-1.99-2.72-3.8-2.7-6.94.1-35.64.06-71.28,0-106.91v-5.68c0-2.97.61-4.72,2.33-6.69.88-.99,1.66-2.03,2.38-3.1,4.45-6.74,5.09-14.54,1.83-21.26-.24-.56-.55-1.12-.93-1.78-1.27-2.12-2.79-3.99-4.54-5.56-.73-.65-1.45-1.26-2.15-1.74-.8-.59-1.64-1.12-2.34-1.45-3.33-1.83-6.93-2.73-10.52-2.73-5.57,0-11.11,2.16-15.6,6.34-6.76,6.38-8.67,15.64-5.18,24.17l-49.18,49.21c-3.44-.71-7.01-.63-10.38.24l-48.57-48.57c3.93-8.7,2.15-18.49-4.8-25.06-7.6-7.1-18.46-8.33-26.92-3.15-.81.45-1.59,1.01-2.41,1.65-.43.36-.86.72-1.29,1.11-2.13,1.94-3.84,4.15-5.1,6.58-.18.37-.31.68-.28.63-3.86,7.95-2.26,17.33,4.17,24.5.47.52.82,1,1.16,1.65.81,1.34,1.14,2.79,1.14,5.01v6.94c-.06,35.22-.1,70.43,0,105.66.02,3.12-.68,4.93-2.7,6.92-15.62,15.5-31.17,31.07-46.71,46.63-7.95,7.96-15.89,15.92-23.85,23.87v-142.92h30.74v-143.37l7.55.02c15.18.04,38.14.11,45.28-.09,3.25-.08,5.33.67,7.86,2.86,9.57,8.22,22.64,7.47,31.09-1.79,7.52-8.25,7.53-21.8,0-30.22-8.1-8.89-22.13-9.54-31.25-1.47-2.15,1.9-4.14,2.6-7.31,2.6-21.48-.04-52.55-.04-81.89-.05l-51.15-.02c14.88-15.37,35.56-26.39,56.66-29.94h0c11.72-1.99,12.95-5.32,14.79-14.65l.31-1.54c1.79-8.9,4.57-15.93,8.48-21.51,6.58-9.34,14.31-17.29,23-23.61,16.1-11.75,36.59-18.81,60.9-20.99,13.63-1.22,26.92-.89,40.53,1.04v81.96l1.41,1.03Z"/>
</svg>